<svg width="24" height="25" viewBox="0 0 24 25" fill="none" xmlns="http://www.w3.org/2000/svg">
<path d="M12 2.05933C6.5 2.05933 2 6.59182 2 12.1742C2 17.2215 5.66 21.4107 10.44 22.1678V15.1016H7.9V12.1742H10.44V9.94324C10.44 7.40948 11.93 6.01642 14.22 6.01642C15.31 6.01642 16.45 6.20822 16.45 6.20822V8.7016H15.19C13.95 8.7016 13.56 9.47889 13.56 10.2764V12.1742H16.34L15.89 15.1016H13.56V22.1678C15.9164 21.7922 18.0622 20.5785 19.6099 18.7458C21.1576 16.9132 22.0054 14.5824 22 12.1742C22 6.59182 17.5 2.05933 12 2.05933Z" fill="#FFB55E"/>
</svg>
