<svg width="24" height="25" viewBox="0 0 24 25" fill="none" xmlns="http://www.w3.org/2000/svg">
<path d="M7.8 2H16.2C19.4 2 22 4.62461 22 7.85489V16.3344C22 17.8872 21.3889 19.3764 20.3012 20.4744C19.2135 21.5724 17.7383 22.1893 16.2 22.1893H7.8C4.6 22.1893 2 19.5647 2 16.3344V7.85489C2 6.30208 2.61107 4.81286 3.69878 3.71486C4.78649 2.61685 6.26174 2 7.8 2ZM7.6 4.01893C6.64522 4.01893 5.72955 4.4018 5.05442 5.08332C4.37928 5.76484 4 6.68918 4 7.653V16.5363C4 18.5451 5.61 20.1703 7.6 20.1703H16.4C17.3548 20.1703 18.2705 19.7875 18.9456 19.106C19.6207 18.4244 20 17.5001 20 16.5363V7.653C20 5.64416 18.39 4.01893 16.4 4.01893H7.6ZM17.25 5.53312C17.5815 5.53312 17.8995 5.66607 18.1339 5.9027C18.3683 6.13934 18.5 6.46029 18.5 6.79495C18.5 7.12961 18.3683 7.45056 18.1339 7.6872C17.8995 7.92384 17.5815 8.05678 17.25 8.05678C16.9185 8.05678 16.6005 7.92384 16.3661 7.6872C16.1317 7.45056 16 7.12961 16 6.79495C16 6.46029 16.1317 6.13934 16.3661 5.9027C16.6005 5.66607 16.9185 5.53312 17.25 5.53312ZM12 7.04732C13.3261 7.04732 14.5979 7.57909 15.5355 8.52564C16.4732 9.4722 17 10.756 17 12.0946C17 13.4333 16.4732 14.7171 15.5355 15.6636C14.5979 16.6102 13.3261 17.142 12 17.142C10.6739 17.142 9.40215 16.6102 8.46447 15.6636C7.52678 14.7171 7 13.4333 7 12.0946C7 10.756 7.52678 9.4722 8.46447 8.52564C9.40215 7.57909 10.6739 7.04732 12 7.04732ZM12 9.06625C11.2044 9.06625 10.4413 9.38531 9.87868 9.95324C9.31607 10.5212 9 11.2915 9 12.0946C9 12.8978 9.31607 13.6681 9.87868 14.236C10.4413 14.804 11.2044 15.123 12 15.123C12.7956 15.123 13.5587 14.804 14.1213 14.236C14.6839 13.6681 15 12.8978 15 12.0946C15 11.2915 14.6839 10.5212 14.1213 9.95324C13.5587 9.38531 12.7956 9.06625 12 9.06625Z" fill="#FFB55E"/>
</svg>
